# xmcd CD database file
# Copyright (C) 1997 Ti Kan
#
# Track frame offsets:
#  150
#  16565
#  31975
#  48850
#  62270
#  79177
#  93462
#  103975
#  119070
#  132530
#  146277
#  158347
#  174207
#  191060
#  202977
#  225035
#  237262
#  254472
#  274152
#  296247
#
# Disc length: 4163 seconds
#
# Revision: 1
# Processed by: cddbd v1.4b41PL1 Copyright (c) Steve Scherf et al.
# Submitted via: CDWizzard Release:4.35
#
DISCID=09104114
DTITLE=Joe Dolan - 20 Greatest Hits
DYEAR=1900
DGENRE=
TTITLE0=More And More
TTITLE1=Hush Hush Maria
TTITLE2=It's You It's You It's You
TTITLE3=Make Me An Island
TTITLE4=My Love
TTITLE5=Gypsey Lady
TTITLE6=I Love You More And More Everyday
TTITLE7=I Need You
TTITLE8=You're Such a Good Looking Woman
TTITLE9=Love Me Tonight
TTITLE10=But I Do
TTITLE11=Only You
TTITLE12=Somethings Burning
TTITLE13=Can't Help Falling In Love
TTITLE14=Bridge Over Troubled Water
TTITLE15=You And The Looking Glass
TTITLE16=She's So Beautiful
TTITLE17=My Way
TTITLE18=Danny Boy
TTITLE19=Unchained Melody
EXTD=
EXTT0=Joe Dolan
EXTT1=Joe Dolan
EXTT2=Joe Dolan
EXTT3=Joe Dolan
EXTT4=Joe Dolan
EXTT5=Joe Dolan
EXTT6=Joe Dolan
EXTT7=Joe Dolan
EXTT8=Joe Dolan
EXTT9=Joe Dolan
EXTT10=Joe Dolan
EXTT11=Joe Dolan
EXTT12=Joe Dolan
EXTT13=Joe Dolan
EXTT14=Joe Dolan
EXTT15=Joe Dolan
EXTT16=Joe Dolan
EXTT17=Joe Dolan
EXTT18=Joe Dolan
EXTT19=Joe Dolan
PLAYORDER=
